.
..............................Site Info...........................

 -   http://www.scenetime.com  *_*   

SceneTime is going to Close sign up on march/1, hurry up! get in before the doors are closed.

     We care to share . Join us on  http://www.scenetime.com 

    Be the first to get new release at  http://www.scenetime.com

        Seed back for speed


...................................NFO:.................................................








































          
          
              
              
                    
                    
                    
                    

Dial.Help.1988.DVDRiP.AC3-2.0.XviD-SiC

Poster:
[img]http://img853.imageshack.us/img853/475/dialhelp.jpg[/img]

IMDB Link:
http://www.imdb.com/title/tt0095952/

Description:
A psychic finds herself tapping into the "energy" of a deceased phone operator. She also finds that her friends soon begin dying mysteriously. An investigator determines to track down the cause.


General
Complete name                    : Dial.Help.1988.DVDRiP.AC3-2.0.XviD-SiC.avi
Format                           : AVI
Format/Info                      : Audio Video Interleave
File size                        : 1.36 GiB
Duration                         : 1h 33mn
Overall bit rate                 : 2 087 Kbps

Video
ID                               : 0
Format                           : MPEG-4 Visual
Format profile                   : Simple@L3
Format settings, BVOP            : 2
Format settings, QPel            : No
Format settings, GMC             : No warppoints
Format settings, Matrix          : Default (H.263)
Muxing mode                      : Packed bitstream
Codec ID                         : XVID
Codec ID/Hint                    : XviD
Duration                         : 1h 33mn
Bit rate                         : 1 823 Kbps
Width                            : 720 pixels
Height                           : 464 pixels
Display aspect ratio             : 1.552
Frame rate                       : 25.000 fps
Color space                      : YUV
Chroma subsampling               : 4:2:0
Bit depth                        : 8 bits
Scan type                        : Progressive
Compression mode                 : Lossy
Bits/(Pixel*Frame)               : 0.218
Stream size                      : 1.19 GiB (87%)
Writing library                  : XviD 1.0.3 (UTC 2004-12-20)

Audio
ID                               : 1
Format                           : AC-3
Format/Info                      : Audio Coding 3
Mode extension                   : CM (complete main)
Codec ID                         : 2000
Duration                         : 1h 33mn
Bit rate mode                    : Constant
Bit rate                         : 256 Kbps
Channel(s)                       : 2 channels
Channel positions                : Front: L R
Sampling rate                    : 48.0 KHz
Bit depth                        : 16 bits
Compression mode                 : Lossy
Stream size                      : 171 MiB (12%)
Alignment                        : Aligned on interleaves
Interleave, duration             : 64 ms (1.60 video frames)
Interleave, preload duration     : 192 ms
Title                            : VTS_02_1 T81 2_0ch 224Kbps DELAY 0ms_new










Screenshots:
[img]http://img849.imageshack.us/img849/3839/vlcsnap2012022019h58m47.png[/img]
[img]http://img16.imageshack.us/img16/3411/vlcsnap2012022019h58m33.png[/img]
[img]http://img707.imageshack.us/img707/1107/vlcsnap2012022019h58m30.png[/img]
[img]http://img35.imageshack.us/img35/3710/vlcsnap2012021712h10m22.png[/img]

Note: 

Source: 

Enjoy!

Respects to T00NG0D, ELEKTRI4KA, PA, YeFsTe, MrRep and everyone in the struggle...RiP MU & BTJ